<svg width="19" height="7" viewBox="0 0 19 7" fill="none" xmlns="http://www.w3.org/2000/svg">
<path d="M0.0585938 6.95117L1.29883 0.0810547C1.30534 0.055013 1.32161 0.0419922 1.34766 0.0419922H2.79785C2.82389 0.0419922 2.84017 0.055013 2.84668 0.0810547L4.03809 6.95117C4.04134 6.98372 4.02832 7 3.99902 7H2.89062C2.85807 7 2.84017 6.98372 2.83691 6.95117L2.72949 6.21875H1.36719L1.25977 6.95117C1.25651 6.98372 1.24023 7 1.21094 7H0.0976562C0.0716146 7 0.0585938 6.98372 0.0585938 6.95117ZM2.0166 2.3418L1.56738 5.14941H2.5293L2.11914 2.3418L2.06055 1.9707L2.0166 2.3418ZM7.93457 7H4.70215C4.67611 7 4.66309 6.98372 4.66309 6.95117L4.67285 0.0908203C4.67285 0.0582682 4.68913 0.0419922 4.72168 0.0419922H5.83496C5.86751 0.0419922 5.88379 0.0582682 5.88379 0.0908203L5.87402 5.76953H7.93457C7.96712 5.76953 7.9834 5.78581 7.9834 5.81836V6.95117C7.9834 6.98372 7.96712 7 7.93457 7ZM9.81934 7H8.68652C8.65397 7 8.6377 6.98372 8.6377 6.95117L8.64746 0.0810547C8.64746 0.055013 8.66048 0.0419922 8.68652 0.0419922H9.80957C9.83561 0.0419922 9.84863 0.055013 9.84863 0.0810547L9.8584 6.95117C9.8584 6.98372 9.84538 7 9.81934 7ZM13.0713 7H11.8604C11.8311 7 11.8148 6.98372 11.8115 6.95117L10.4297 0.0810547C10.4232 0.055013 10.4362 0.0419922 10.4688 0.0419922H11.6016C11.6276 0.0419922 11.6439 0.055013 11.6504 0.0810547L12.4707 4.66113L13.2715 0.0810547C13.278 0.055013 13.2943 0.0419922 13.3203 0.0419922H14.4385C14.4743 0.0419922 14.4873 0.055013 14.4775 0.0810547L13.1201 6.95117C13.1169 6.98372 13.1006 7 13.0713 7ZM18.335 7H15.1025C15.0765 7 15.0635 6.98372 15.0635 6.95117L15.0732 0.0810547C15.0732 0.055013 15.0863 0.0419922 15.1123 0.0419922H18.3252C18.3512 0.0419922 18.3643 0.0582682 18.3643 0.0908203V1.20898C18.3643 1.23503 18.3512 1.24805 18.3252 1.24805H16.2744V2.81055H18.3252C18.3512 2.81055 18.3643 2.82357 18.3643 2.84961L18.374 3.98242C18.374 4.00846 18.361 4.02148 18.335 4.02148H16.2744V5.76953H18.335C18.361 5.76953 18.374 5.78581 18.374 5.81836V6.96094C18.374 6.98698 18.361 7 18.335 7Z" fill="white"/>
</svg>
