<svg width="22" height="19" viewBox="0 0 22 19" fill="none" xmlns="http://www.w3.org/2000/svg">
<path d="M0 6.99662C0 7.9224 0.777619 8.67294 1.73684 8.67294C2.69607 8.67294 3.47368 7.9224 3.47368 6.99662H0ZM11 3.69171L9.73882 4.84422C10.0667 5.17859 10.5229 5.36813 11 5.36813C11.4771 5.36813 11.9333 5.17859 12.2612 4.84422L11 3.69171ZM7.04208 12.8571C6.30629 12.263 5.2109 12.3571 4.59538 13.0672C3.97987 13.7772 4.07729 14.8344 4.81302 15.4285L7.04208 12.8571ZM3.47368 6.99662C3.47368 5.39875 4.39238 4.1272 5.53722 3.61368C6.56457 3.15296 8.09623 3.16977 9.73882 4.84422L12.2612 2.53916C9.73558 -0.0353402 6.63566 -0.575855 4.07343 0.573233C1.62876 1.66962 0 4.17481 0 6.99662H3.47368ZM7.09951 17.1876C7.56429 17.547 8.12958 17.9837 8.71918 18.3216C9.30716 18.6589 10.0887 19 11 19V15.6473C10.9849 15.6473 10.8402 15.6382 10.4931 15.4393C10.1473 15.241 9.7687 14.9558 9.27173 14.5714L7.09951 17.1876ZM14.9005 17.1876C16.161 16.2126 17.9645 14.9594 19.3688 13.4078C20.8326 11.7907 22 9.72054 22 6.99662H18.5263C18.5263 8.69239 17.832 10.0095 16.7529 11.202C15.6142 12.4599 14.1935 13.4382 12.7283 14.5714L14.9005 17.1876ZM22 6.99662C22 4.17481 20.3713 1.66962 17.9265 0.573233C15.3643 -0.575855 12.2644 -0.0353402 9.73882 2.53916L12.2612 4.84422C13.9038 3.16977 15.4354 3.15296 16.4627 3.61368C17.6076 4.1272 18.5263 5.39875 18.5263 6.99662H22ZM12.7283 14.5714C12.2313 14.9558 11.8527 15.241 11.5069 15.4393C11.1598 15.6382 11.0151 15.6473 11 15.6473V19C11.9113 19 12.6928 18.6589 13.2808 18.3216C13.8704 17.9837 14.4357 17.547 14.9005 17.1876L12.7283 14.5714ZM9.27173 14.5714C8.49756 13.9726 7.79564 13.4657 7.04208 12.8571L4.81302 15.4285C5.58872 16.0548 6.44831 16.684 7.09951 17.1876L9.27173 14.5714Z" fill="#09101ceb"/>
</svg>
